<?xml version="1.0" ?><svg id="Icons" viewBox="0 0 60 60" xmlns="http://www.w3.org/2000/svg"><defs><style>.cls-1{fill:#439af6;}.cls-2{fill:#50efdb;}.cls-3{fill:#34d6c6;}.cls-4{fill:#373737;}</style></defs><rect class="cls-1" height="38" rx="2" width="58" x="1" y="15"/><path class="cls-2" d="M17,15v2.492a10,10,0,0,0,2.191,6.247l1.2,1.5a2.026,2.026,0,0,0,1.582.76h0A3.026,3.026,0,0,0,25,22.974V15Z"/><rect class="cls-2" height="5" rx="2.5" width="8" x="47" y="42"/><path class="cls-2" d="M22,40h0a11.118,11.118,0,0,1-.877,4.407A16.116,16.116,0,0,0,20.2,47.68a1.6,1.6,0,0,1-3.17-.35c.043-1.123.123-2.027.206-2.713A1.916,1.916,0,0,0,16.3,42.7,2.5,2.5,0,0,1,17.5,38H20A2.006,2.006,0,0,1,22,40Z"/><path class="cls-2" d="M32,33l-2.55-3.4A2.249,2.249,0,0,1,29,28.25h0A2.25,2.25,0,0,1,31.25,26h0a2.972,2.972,0,0,0,1.727-.554l7.458-5.328A6,6,0,0,1,43.922,19H44a6,6,0,0,1,4.8,2.4h0A4,4,0,0,0,52,23h7v4H54a2,2,0,0,0-2,2v1a2,2,0,0,1-2,2h0a2,2,0,0,0-2,2h0a2,2,0,0,1-2,2H44.5a1,1,0,0,0-.8.4l-1.716,2.288a.781.781,0,0,1-1.382-.279l-.413-1.652a1,1,0,0,0-.97-.757H35Z"/><path class="cls-2" d="M1,27H4a3,3,0,0,1,3,3v2a6.784,6.784,0,0,0,3.513,6.419A1,1,0,0,0,12,37.544V36.121A2.122,2.122,0,0,1,14.121,34h0a2.12,2.12,0,0,0,1.5-.621l1.965-1.965a2,2,0,0,0,0-2.828L17,28a1.16,1.16,0,0,0-1.786.177h0a2.19,2.19,0,0,1-3.037.607h0a2.189,2.189,0,0,1-.945-2.182l.379-2.274A2,2,0,0,0,9.639,22H1Z"/><path class="cls-3" d="M35,36v6a3,3,0,0,1-2.975,3A1.008,1.008,0,0,1,31,44V40a1,1,0,0,0-1-1h-.831a3.116,3.116,0,0,1-3.161-2.78A3,3,0,0,1,29,33h3A3,3,0,0,1,35,36Z"/><path class="cls-4" d="M57,14H43.773C42.889,9.9,39.43,6,35,6H29a9.01,9.01,0,0,0-8.941,8H12a1,1,0,0,0,0,2h4v1.492A10.841,10.841,0,0,0,16.114,19H11.343a3.986,3.986,0,0,0-3.452,2H2V17a1,1,0,0,1,1-1H7a1,1,0,0,0,0-2H3a3,3,0,0,0-3,3V51a3,3,0,0,0,3,3H57a3,3,0,0,0,3-3V17A3,3,0,0,0,57,14ZM47.045,33.555l-.42-.336a1,1,0,0,0-1.25,1.562l.273.219H44.5a2.007,2.007,0,0,0-1.6.8L41.461,37.72l-.3-1.2A2,2,0,0,0,39.219,35H35.858a3.988,3.988,0,0,0-3.317-2.945L30.25,29a1.25,1.25,0,0,1,1-2,3.949,3.949,0,0,0,2.309-.74l7.458-5.329A4.911,4.911,0,0,1,42,20.4V23a1,1,0,0,0,2,0V20a5.025,5.025,0,0,1,4,2,5.025,5.025,0,0,0,4,2h6v2H54a3,3,0,0,0-3,3v1a1,1,0,0,1-1,1A3,3,0,0,0,47.045,33.555ZM30,38h-.831a2.234,2.234,0,0,1-1.864-1H28a1,1,0,0,0,0-2h-.722A1.954,1.954,0,0,1,29,34h3a2,2,0,0,1,2,2v6a2.009,2.009,0,0,1-2,2V40A2,2,0,0,0,30,38ZM57,16a1,1,0,0,1,1,1v5H52a3.017,3.017,0,0,1-2.4-1.2,7.066,7.066,0,0,0-5.6-2.8V16ZM29,8h6c3.242,0,5.882,2.909,6.719,6H22.08A7,7,0,0,1,29,8ZM18,17.492V16h2a1,1,0,0,0,2,0h2v6.974A2.028,2.028,0,0,1,21.974,25a1.021,1.021,0,0,1-.8-.385l-1.2-1.5A8.959,8.959,0,0,1,18.72,21H19a1,1,0,0,0,0-2h-.872A9.037,9.037,0,0,1,18,17.492ZM7.22,23l-.19.758a1,1,0,0,0,.728,1.212A.968.968,0,0,0,8,25a1,1,0,0,0,.969-.758L9.28,23h.359a1,1,0,0,1,.987,1.164l-.38,2.275a3.19,3.19,0,0,0,5.8,2.293.155.155,0,0,1,.118-.07.159.159,0,0,1,.129.046l.585.585a1,1,0,0,1,0,1.414l-1.965,1.965a1.129,1.129,0,0,1-.793.328A3.124,3.124,0,0,0,11,36.121l-.013,1.418A5.808,5.808,0,0,1,8,32V30a4,4,0,0,0-4-4H2V23ZM57,52H3a1,1,0,0,1-1-1V28H4a2,2,0,0,1,2,2v2a7.79,7.79,0,0,0,4.038,7.3,2,2,0,0,0,1.989-.04A1.977,1.977,0,0,0,13,37.544V36.121A1.122,1.122,0,0,1,14.121,35a3.142,3.142,0,0,0,2.207-.914l1.965-1.965a3,3,0,0,0,0-4.242l-.585-.585a2.16,2.16,0,0,0-3.325.33,1.19,1.19,0,0,1-2.164-.856l.38-2.275a2.957,2.957,0,0,0-2.035-3.329A2,2,0,0,1,11.343,21h5.239a11.022,11.022,0,0,0,1.828,3.364l1.2,1.5A3.013,3.013,0,0,0,21.974,27,4.031,4.031,0,0,0,26,22.974V16H42v2.281A6.971,6.971,0,0,0,39.854,19.3L32.4,24.633A1.96,1.96,0,0,1,31.25,25a3.25,3.25,0,0,0-2.6,5.2L30,32H29a3.939,3.939,0,0,0-3.848,3h-2.99a3.984,3.984,0,0,0-3.452,2H17.5a3.5,3.5,0,0,0-1.678,6.571.917.917,0,0,1,.42.927c-.1.853-.173,1.792-.211,2.8a2.6,2.6,0,0,0,.735,1.912A2.572,2.572,0,0,0,18.63,50a2.6,2.6,0,0,0,2.554-2.137,14.877,14.877,0,0,1,.857-3.059A12.039,12.039,0,0,0,23,40a3,3,0,0,0-1.783-2.737A1.968,1.968,0,0,1,22.162,37h2.972a4.151,4.151,0,0,0,4.035,3H30v4a1.977,1.977,0,0,0,.589,1.413A2.013,2.013,0,0,0,32.018,46h.014A4.012,4.012,0,0,0,36,42V37h3.22l.412,1.651a1.767,1.767,0,0,0,1.375,1.314,1.839,1.839,0,0,0,.36.036,1.763,1.763,0,0,0,1.417-.713L44.5,37H46a2.976,2.976,0,0,0,1.575-.458l1.674,1.339A1.985,1.985,0,0,1,50,39.441V41h-.5a3.5,3.5,0,0,0,0,7h3a3.5,3.5,0,0,0,0-7H52V39.441a3.982,3.982,0,0,0-1.5-3.123l-1.676-1.341A2.962,2.962,0,0,0,49,34a1,1,0,0,1,1-1,3,3,0,0,0,3-3V29a1,1,0,0,1,1-1h4V51A1,1,0,0,1,57,52ZM16.782,41.816A1.5,1.5,0,0,1,17.5,39h.513A.987.987,0,0,0,19,40a1,1,0,0,0,.948-.684l.1-.306A1,1,0,0,1,21,40a10.067,10.067,0,0,1-.8,4.01,16.752,16.752,0,0,0-.988,3.488.6.6,0,0,1-1.188-.13c.036-.947.1-1.833.2-2.632A2.9,2.9,0,0,0,16.782,41.816ZM51,44a1,1,0,0,0,1-1h.5a1.5,1.5,0,0,1,0,3h-3a1.5,1.5,0,0,1,0-3H50A1,1,0,0,0,51,44Z"/><path class="cls-4" d="M24,32h1a1,1,0,0,0,1-1V29a1,1,0,0,0-2,0v1a1,1,0,0,0,0,2Z"/></svg>